<mxfile host="app.diagrams.net" modified="2022-08-17T03:00:56.824Z" agent="5.0 (Windows NT 10.0; Win64; x64) AppleWebKit/537.36 (KHTML, like Gecko) Chrome/104.0.0.0 Safari/537.36" etag="_cjyjKnYdTi_9bG4MuhC" version="20.1.1" type="github">
  <diagram id="d-ZpoT4zATYHA7PLguwY" name="Page-1">
    <mxGraphModel dx="1204" dy="573" grid="1" gridSize="10" guides="1" tooltips="1" connect="1" arrows="1" fold="1" page="1" pageScale="1" pageWidth="827" pageHeight="1169" math="0" shadow="0">
      <root>
        <mxCell id="0" />
        <mxCell id="1" parent="0" />
        <mxCell id="0eHHYWISejK7ODosK7OV-1" value="电动车节点" style="rounded=1;whiteSpace=wrap;html=1;" parent="1" vertex="1">
          <mxGeometry x="70" y="80" width="90" height="30" as="geometry" />
        </mxCell>
        <mxCell id="0eHHYWISejK7ODosK7OV-2" value="" style="endArrow=none;html=1;rounded=0;entryX=0.5;entryY=1;entryDx=0;entryDy=0;" parent="1" target="0eHHYWISejK7ODosK7OV-1" edge="1">
          <mxGeometry width="50" height="50" relative="1" as="geometry">
            <mxPoint x="115" y="400" as="sourcePoint" />
            <mxPoint x="440" y="370" as="targetPoint" />
          </mxGeometry>
        </mxCell>
        <mxCell id="0eHHYWISejK7ODosK7OV-7" value="子链" style="rounded=1;whiteSpace=wrap;html=1;" parent="1" vertex="1">
          <mxGeometry x="280" y="80" width="90" height="30" as="geometry" />
        </mxCell>
        <mxCell id="0eHHYWISejK7ODosK7OV-8" value="" style="endArrow=none;html=1;rounded=0;entryX=0.5;entryY=1;entryDx=0;entryDy=0;" parent="1" target="0eHHYWISejK7ODosK7OV-7" edge="1">
          <mxGeometry width="50" height="50" relative="1" as="geometry">
            <mxPoint x="325" y="400" as="sourcePoint" />
            <mxPoint x="650" y="370" as="targetPoint" />
          </mxGeometry>
        </mxCell>
        <mxCell id="0eHHYWISejK7ODosK7OV-9" value="主链" style="rounded=1;whiteSpace=wrap;html=1;" parent="1" vertex="1">
          <mxGeometry x="490" y="80" width="90" height="30" as="geometry" />
        </mxCell>
        <mxCell id="0eHHYWISejK7ODosK7OV-10" value="" style="endArrow=none;html=1;rounded=0;entryX=0.5;entryY=1;entryDx=0;entryDy=0;" parent="1" target="0eHHYWISejK7ODosK7OV-9" edge="1">
          <mxGeometry width="50" height="50" relative="1" as="geometry">
            <mxPoint x="535" y="400" as="sourcePoint" />
            <mxPoint x="860" y="370" as="targetPoint" />
          </mxGeometry>
        </mxCell>
        <mxCell id="0eHHYWISejK7ODosK7OV-11" value="" style="endArrow=classic;html=1;rounded=0;" parent="1" edge="1">
          <mxGeometry width="50" height="50" relative="1" as="geometry">
            <mxPoint x="130" y="140" as="sourcePoint" />
            <mxPoint x="310" y="140" as="targetPoint" />
          </mxGeometry>
        </mxCell>
        <mxCell id="0eHHYWISejK7ODosK7OV-12" value="S101. 提交上传交易" style="edgeLabel;html=1;align=center;verticalAlign=middle;resizable=0;points=[];" parent="0eHHYWISejK7ODosK7OV-11" vertex="1" connectable="0">
          <mxGeometry x="0.2471" y="4" relative="1" as="geometry">
            <mxPoint x="-16" y="-6" as="offset" />
          </mxGeometry>
        </mxCell>
        <mxCell id="0eHHYWISejK7ODosK7OV-13" value="" style="endArrow=classic;html=1;rounded=0;" parent="1" edge="1">
          <mxGeometry width="50" height="50" relative="1" as="geometry">
            <mxPoint x="340" y="160" as="sourcePoint" />
            <mxPoint x="520" y="160" as="targetPoint" />
          </mxGeometry>
        </mxCell>
        <mxCell id="0eHHYWISejK7ODosK7OV-14" value="S102. 提交上传交易" style="edgeLabel;html=1;align=center;verticalAlign=middle;resizable=0;points=[];" parent="0eHHYWISejK7ODosK7OV-13" vertex="1" connectable="0">
          <mxGeometry x="0.2471" y="4" relative="1" as="geometry">
            <mxPoint x="-38" y="-6" as="offset" />
          </mxGeometry>
        </mxCell>
        <mxCell id="0eHHYWISejK7ODosK7OV-15" value="S103. 验证交易" style="rounded=1;whiteSpace=wrap;html=1;" parent="1" vertex="1">
          <mxGeometry x="490" y="180" width="90" height="30" as="geometry" />
        </mxCell>
        <mxCell id="0eHHYWISejK7ODosK7OV-16" value="" style="endArrow=classic;html=1;rounded=0;" parent="1" edge="1">
          <mxGeometry width="50" height="50" relative="1" as="geometry">
            <mxPoint x="520" y="240" as="sourcePoint" />
            <mxPoint x="340" y="240" as="targetPoint" />
          </mxGeometry>
        </mxCell>
        <mxCell id="0eHHYWISejK7ODosK7OV-17" value="S104.返回验证结果" style="edgeLabel;html=1;align=center;verticalAlign=middle;resizable=0;points=[];" parent="0eHHYWISejK7ODosK7OV-16" vertex="1" connectable="0">
          <mxGeometry x="0.2471" y="4" relative="1" as="geometry">
            <mxPoint x="12" y="-14" as="offset" />
          </mxGeometry>
        </mxCell>
        <mxCell id="0eHHYWISejK7ODosK7OV-18" value="" style="endArrow=classic;html=1;rounded=0;" parent="1" edge="1">
          <mxGeometry width="50" height="50" relative="1" as="geometry">
            <mxPoint x="310" y="260" as="sourcePoint" />
            <mxPoint x="130" y="260" as="targetPoint" />
          </mxGeometry>
        </mxCell>
        <mxCell id="0eHHYWISejK7ODosK7OV-19" value="S105.验证失败" style="edgeLabel;html=1;align=center;verticalAlign=middle;resizable=0;points=[];" parent="0eHHYWISejK7ODosK7OV-18" vertex="1" connectable="0">
          <mxGeometry x="0.2471" y="4" relative="1" as="geometry">
            <mxPoint x="12" y="-14" as="offset" />
          </mxGeometry>
        </mxCell>
        <mxCell id="0eHHYWISejK7ODosK7OV-20" value="S106. 验证成功&lt;br&gt;保存交易至区块" style="rounded=1;whiteSpace=wrap;html=1;" parent="1" vertex="1">
          <mxGeometry x="280" y="270" width="90" height="30" as="geometry" />
        </mxCell>
        <mxCell id="0eHHYWISejK7ODosK7OV-22" value="" style="endArrow=classic;html=1;rounded=0;" parent="1" edge="1">
          <mxGeometry width="50" height="50" relative="1" as="geometry">
            <mxPoint x="310" y="340" as="sourcePoint" />
            <mxPoint x="130" y="340" as="targetPoint" />
          </mxGeometry>
        </mxCell>
        <mxCell id="0eHHYWISejK7ODosK7OV-23" value="S107.提交成功" style="edgeLabel;html=1;align=center;verticalAlign=middle;resizable=0;points=[];" parent="0eHHYWISejK7ODosK7OV-22" vertex="1" connectable="0">
          <mxGeometry x="0.2471" y="4" relative="1" as="geometry">
            <mxPoint x="12" y="-14" as="offset" />
          </mxGeometry>
        </mxCell>
        <mxCell id="0eHHYWISejK7ODosK7OV-24" value="" style="endArrow=classic;html=1;rounded=0;" parent="1" edge="1">
          <mxGeometry width="50" height="50" relative="1" as="geometry">
            <mxPoint x="340" y="370" as="sourcePoint" />
            <mxPoint x="520" y="370" as="targetPoint" />
          </mxGeometry>
        </mxCell>
        <mxCell id="0eHHYWISejK7ODosK7OV-25" value="S108. 同步数据至主链" style="edgeLabel;html=1;align=center;verticalAlign=middle;resizable=0;points=[];" parent="0eHHYWISejK7ODosK7OV-24" vertex="1" connectable="0">
          <mxGeometry x="0.2471" y="4" relative="1" as="geometry">
            <mxPoint x="-38" y="-6" as="offset" />
          </mxGeometry>
        </mxCell>
      </root>
    </mxGraphModel>
  </diagram>
</mxfile>
